<?xml version="1.0" encoding="UTF-8" standalone="no"?>
<!-- Created with Inkscape (http://www.inkscape.org/) -->

<svg
   width="129.44846mm"
   height="19.720955mm"
   viewBox="0 0 129.44846 19.720955"
   version="1.1"
   id="svg5"
   inkscape:version="1.2.2 (732a01da63, 2022-12-09)"
   sodipodi:docname="canvas.svg"
   xmlns:inkscape="http://www.inkscape.org/namespaces/inkscape"
   xmlns:sodipodi="http://sodipodi.sourceforge.net/DTD/sodipodi-0.dtd"
   xmlns:xlink="http://www.w3.org/1999/xlink"
   xmlns="http://www.w3.org/2000/svg"
   xmlns:svg="http://www.w3.org/2000/svg">
  <sodipodi:namedview
     id="namedview7"
     pagecolor="#808080"
     bordercolor="#000000"
     borderopacity="0.25"
     inkscape:showpageshadow="2"
     inkscape:pageopacity="0"
     inkscape:pagecheckerboard="0"
     inkscape:deskcolor="#d1d1d1"
     inkscape:document-units="mm"
     showgrid="false"
     inkscape:zoom="0.74564394"
     inkscape:cx="657.15011"
     inkscape:cy="561.9304"
     inkscape:window-width="1920"
     inkscape:window-height="1017"
     inkscape:window-x="-8"
     inkscape:window-y="-8"
     inkscape:window-maximized="1"
     inkscape:current-layer="layer1" />
  <defs
     id="defs2">
    <color-profile
       name="Agfa-:-Swop-Standard"
       xlink:href="file:///C:/WINDOWS/system32/spool/drivers/color/RSWOP.icm"
       id="color-profile2057" />
  </defs>
  <g
     inkscape:label="Layer 1"
     inkscape:groupmode="layer"
     id="layer1"
     transform="translate(-32.917649,-72.988104)">
    <g
       aria-label="FOUR WHEELS MOVE THE BODY. 

"
       id="text240"
       style="font-size:11.9622px;font-family:'Bebas Neue';-inkscape-font-specification:'Bebas Neue, Normal';fill:#ffffff;stroke:#f600de;stroke-width:0"
       inkscape:export-filename="text240.svg"
       inkscape:export-xdpi="96"
       inkscape:export-ydpi="96"
       transform="translate(13.83871,6.3870968)">
      <path
         d="m 19.07894,66.720622 h 3.481 v 1.19622 h -2.165158 v 2.332629 h 1.698632 v 1.19622 h -1.698632 v 3.648471 H 19.07894 Z"
         id="path1292"
         style="fill:#ffffff" />
      <path
         d="m 25.095925,75.213784 q -0.968939,0 -1.483313,-0.550261 -0.514375,-0.550261 -0.514375,-1.555086 v -4.40209 q 0,-1.004825 0.514375,-1.555086 0.514374,-0.550261 1.483313,-0.550261 0.968938,0 1.483312,0.550261 0.514375,0.550261 0.514375,1.555086 v 4.40209 q 0,1.004825 -0.514375,1.555086 -0.514374,0.550261 -1.483312,0.550261 z m 0,-1.19622 q 0.681845,0 0.681845,-0.825392 v -4.56956 q 0,-0.825392 -0.681845,-0.825392 -0.681846,0 -0.681846,0.825392 v 4.56956 q 0,0.825392 0.681846,0.825392 z"
         id="path1294"
         style="fill:#ffffff" />
      <path
         d="m 29.892762,75.213784 q -0.956976,0 -1.459389,-0.538299 -0.502412,-0.550261 -0.502412,-1.567048 v -6.387815 h 1.315842 v 6.483512 q 0,0.43064 0.167471,0.622035 0.179433,0.191395 0.502412,0.191395 0.322979,0 0.49045,-0.191395 0.179433,-0.191395 0.179433,-0.622035 v -6.483512 h 1.267994 v 6.387815 q 0,1.016787 -0.502413,1.567048 -0.502412,0.538299 -1.459388,0.538299 z"
         id="path1296"
         style="fill:#ffffff" />
      <path
         d="m 32.78762,66.720622 h 1.949839 q 1.016787,0 1.483312,0.478488 0.466526,0.466526 0.466526,1.447426 v 0.514375 q 0,1.30388 -0.861278,1.650783 v 0.02392 q 0.478488,0.143546 0.669883,0.586148 0.203357,0.442601 0.203357,1.184257 v 1.471351 q 0,0.358866 0.02393,0.586148 0.02392,0.215319 0.119622,0.430639 h -1.339767 q -0.07177,-0.203357 -0.0957,-0.38279 -0.02392,-0.179433 -0.02392,-0.645959 v -1.531162 q 0,-0.574185 -0.191395,-0.801467 -0.179433,-0.227282 -0.633996,-0.227282 h -0.454564 v 3.58866 H 32.78762 Z m 1.79433,3.58866 q 0.394753,0 0.586148,-0.203357 0.203357,-0.203358 0.203357,-0.681846 V 68.77812 q 0,-0.454563 -0.167471,-0.657921 -0.155508,-0.203357 -0.502412,-0.203357 h -0.59811 v 2.39244 z"
         id="path1298"
         style="fill:#ffffff" />
      <path
         d="m 39.211318,66.720622 h 1.267993 l 0.586148,6.435664 h 0.02393 l 0.622034,-6.435664 h 1.435464 l 0.622034,6.435664 h 0.02393 l 0.586148,-6.435664 h 1.136409 l -0.849317,8.37354 H 43.02726 l -0.59811,-5.646158 h -0.02392 l -0.59811,5.646158 h -1.746482 z"
         id="path1300"
         style="fill:#ffffff" />
      <path
         d="m 46.185271,66.720622 h 1.315842 v 3.409227 h 1.411539 v -3.409227 h 1.315842 v 8.37354 h -1.315842 v -3.768093 h -1.411539 v 3.768093 h -1.315842 z"
         id="path1302"
         style="fill:#ffffff" />
      <path
         d="m 51.209395,66.720622 h 3.58866 v 1.19622 h -2.272818 v 2.213007 h 1.806292 v 1.19622 h -1.806292 v 2.571873 h 2.272818 v 1.19622 h -3.58866 z"
         id="path1304"
         style="fill:#ffffff" />
      <path
         d="m 55.551684,66.720622 h 3.58866 v 1.19622 h -2.272818 v 2.213007 h 1.806292 v 1.19622 h -1.806292 v 2.571873 h 2.272818 v 1.19622 h -3.58866 z"
         id="path1306"
         style="fill:#ffffff" />
      <path
         d="m 59.893973,66.720622 h 1.315842 v 7.17732 h 2.165158 v 1.19622 h -3.481 z"
         id="path1308"
         style="fill:#ffffff" />
      <path
         d="m 65.719565,75.213784 q -0.956976,0 -1.447426,-0.538299 -0.49045,-0.550261 -0.49045,-1.567048 v -0.478488 h 1.244069 v 0.574185 q 0,0.81343 0.681845,0.81343 0.334942,0 0.502412,-0.191395 0.179433,-0.203358 0.179433,-0.645959 0,-0.526337 -0.239244,-0.921089 -0.239244,-0.406715 -0.885202,-0.968939 -0.81343,-0.717732 -1.136409,-1.291917 -0.32298,-0.586148 -0.32298,-1.315842 0,-0.992863 0.502413,-1.531162 0.502412,-0.550261 1.459388,-0.550261 0.945014,0 1.423502,0.550261 0.49045,0.538299 0.49045,1.555086 v 0.346904 h -1.244069 v -0.430639 q 0,-0.43064 -0.167471,-0.622035 -0.16747,-0.203357 -0.49045,-0.203357 -0.657921,0 -0.657921,0.801467 0,0.454564 0.239244,0.849317 0.251206,0.394752 0.897165,0.956976 0.825392,0.717732 1.136409,1.303879 0.311017,0.586148 0.311017,1.375653 0,1.02875 -0.514374,1.579011 -0.502413,0.550261 -1.471351,0.550261 z"
         id="path1310"
         style="fill:#ffffff" />
      <path
         d="m 70.372855,66.720622 h 1.878065 l 0.837354,5.993062 h 0.02392 l 0.837354,-5.993062 h 1.878066 v 8.37354 h -1.244069 v -6.339966 h -0.02392 l -0.956976,6.339966 H 72.502126 L 71.54515,68.754196 h -0.02392 v 6.339966 h -1.148371 z"
         id="path1312"
         style="fill:#ffffff" />
      <path
         d="m 78.710509,75.213784 q -0.968938,0 -1.483312,-0.550261 -0.514375,-0.550261 -0.514375,-1.555086 v -4.40209 q 0,-1.004825 0.514375,-1.555086 0.514374,-0.550261 1.483312,-0.550261 0.968939,0 1.483313,0.550261 0.514375,0.550261 0.514375,1.555086 v 4.40209 q 0,1.004825 -0.514375,1.555086 -0.514374,0.550261 -1.483313,0.550261 z m 0,-1.19622 q 0.681846,0 0.681846,-0.825392 v -4.56956 q 0,-0.825392 -0.681846,-0.825392 -0.681845,0 -0.681845,0.825392 v 4.56956 q 0,0.825392 0.681845,0.825392 z"
         id="path1314"
         style="fill:#ffffff" />
      <path
         d="m 81.222556,66.720622 h 1.327805 l 0.861278,6.495475 h 0.02392 l 0.861279,-6.495475 h 1.208182 l -1.267993,8.37354 H 82.49055 Z"
         id="path1316"
         style="fill:#ffffff" />
      <path
         d="m 86.139021,66.720622 h 3.58866 v 1.19622 h -2.272818 v 2.213007 h 1.806292 v 1.19622 h -1.806292 v 2.571873 h 2.272818 v 1.19622 h -3.58866 z"
         id="path1318"
         style="fill:#ffffff" />
      <path
         d="m 93.424011,67.916842 h -1.375653 v -1.19622 h 4.067148 v 1.19622 h -1.375653 v 7.17732 h -1.315842 z"
         id="path1320"
         style="fill:#ffffff" />
      <path
         d="m 96.749502,66.720622 h 1.315843 v 3.409227 h 1.411539 v -3.409227 h 1.315846 v 8.37354 h -1.315846 v -3.768093 h -1.411539 v 3.768093 h -1.315843 z"
         id="path1322"
         style="fill:#ffffff" />
      <path
         d="m 101.77363,66.720622 h 3.58866 v 1.19622 h -2.27281 v 2.213007 h 1.80629 v 1.19622 h -1.80629 v 2.571873 h 2.27281 v 1.19622 h -3.58866 z"
         id="path1324"
         style="fill:#ffffff" />
      <path
         d="m 108.02987,66.720622 h 1.98572 q 1.01679,0 1.48332,0.478488 0.46652,0.466526 0.46652,1.447426 v 0.334942 q 0,0.645959 -0.21532,1.052673 -0.20336,0.406715 -0.63399,0.586148 v 0.02392 q 0.9809,0.334941 0.9809,1.746481 v 0.717732 q 0,0.968938 -0.51438,1.483313 -0.50241,0.502412 -1.48331,0.502412 h -2.06946 z m 1.83021,3.409227 q 0.39476,0 0.58615,-0.203357 0.20336,-0.203358 0.20336,-0.681846 V 68.77812 q 0,-0.454563 -0.16747,-0.657921 -0.15551,-0.203357 -0.50241,-0.203357 h -0.634 v 2.213007 z m 0.23925,3.768093 q 0.3469,0 0.51437,-0.179433 0.16747,-0.191395 0.16747,-0.645959 v -0.729694 q 0,-0.574186 -0.20335,-0.789505 -0.1914,-0.227282 -0.64596,-0.227282 h -0.58615 v 2.571873 z"
         id="path1326"
         style="fill:#ffffff" />
      <path
         d="m 114.76458,75.213784 q -0.96894,0 -1.48331,-0.550261 -0.51437,-0.550261 -0.51437,-1.555086 v -4.40209 q 0,-1.004825 0.51437,-1.555086 0.51437,-0.550261 1.48331,-0.550261 0.96894,0 1.48332,0.550261 0.51437,0.550261 0.51437,1.555086 v 4.40209 q 0,1.004825 -0.51437,1.555086 -0.51438,0.550261 -1.48332,0.550261 z m 0,-1.19622 q 0.68185,0 0.68185,-0.825392 v -4.56956 q 0,-0.825392 -0.68185,-0.825392 -0.68184,0 -0.68184,0.825392 v 4.56956 q 0,0.825392 0.68184,0.825392 z"
         id="path1328"
         style="fill:#ffffff" />
      <path
         d="m 117.64747,66.720622 h 2.00965 q 0.9809,0 1.47135,0.526337 0.49045,0.526336 0.49045,1.543124 v 4.234618 q 0,1.016787 -0.49045,1.543124 -0.49045,0.526337 -1.47135,0.526337 h -2.00965 z m 1.98572,7.17732 q 0.32298,0 0.49045,-0.191395 0.17944,-0.191395 0.17944,-0.622035 v -4.354241 q 0,-0.430639 -0.17944,-0.622034 -0.16747,-0.191395 -0.49045,-0.191395 h -0.66988 v 5.9811 z"
         id="path1330"
         style="fill:#ffffff" />
      <path
         d="m 123.49699,71.529426 -1.59097,-4.808804 h 1.39958 l 0.89716,3.074285 h 0.0239 l 0.89716,-3.074285 h 1.27996 l -1.59098,4.808804 v 3.564736 h -1.31584 z"
         id="path1332"
         style="fill:#ffffff" />
      <path
         d="m 125.88941,73.826169 h 1.26799 v 1.267993 h -1.26799 z"
         id="path1334"
         style="fill:#ffffff" />
    </g>
    <g
       aria-label="TWO WHEELS MOVE THE SOUL. 

"
       id="text240-5"
       style="font-size:11.9622px;font-family:'Bebas Neue';-inkscape-font-specification:'Bebas Neue, Normal';fill:#ffffff;stroke:#f600de;stroke-width:0"
       inkscape:export-filename="text240.svg"
       inkscape:export-xdpi="96"
       inkscape:export-ydpi="96"
       transform="translate(9.9354842,3.5483871)">
      <path
         d="M 47.641743,81.863726 H 46.26609 v -1.19622 h 4.067148 v 1.19622 h -1.375653 v 7.17732 h -1.315842 z"
         id="path1337"
         style="fill:#ffffff" />
      <path
         d="m 50.704066,80.667506 h 1.267994 l 0.586147,6.435664 h 0.02392 l 0.622034,-6.435664 h 1.435464 l 0.622035,6.435664 h 0.02392 l 0.586148,-6.435664 h 1.136409 l -0.849316,8.37354 h -1.638822 l -0.59811,-5.646158 h -0.02392 l -0.59811,5.646158 h -1.746481 z"
         id="path1339"
         style="fill:#ffffff" />
      <path
         d="m 59.58001,89.160668 q -0.968939,0 -1.483313,-0.550261 -0.514375,-0.550261 -0.514375,-1.555086 v -4.40209 q 0,-1.004825 0.514375,-1.555086 0.514374,-0.550261 1.483313,-0.550261 0.968938,0 1.483312,0.550261 0.514375,0.550261 0.514375,1.555086 v 4.40209 q 0,1.004825 -0.514375,1.555086 -0.514374,0.550261 -1.483312,0.550261 z m 0,-1.19622 q 0.681845,0 0.681845,-0.825392 v -4.56956 q 0,-0.825392 -0.681845,-0.825392 -0.681846,0 -0.681846,0.825392 v 4.56956 q 0,0.825392 0.681846,0.825392 z"
         id="path1341"
         style="fill:#ffffff" />
      <path
         d="m 64.065828,80.667506 h 1.267993 l 0.586148,6.435664 h 0.02392 l 0.622034,-6.435664 h 1.435464 l 0.622035,6.435664 h 0.02392 l 0.586148,-6.435664 h 1.136409 l -0.849316,8.37354 h -1.638822 l -0.59811,-5.646158 h -0.02392 l -0.59811,5.646158 H 64.91514 Z"
         id="path1343"
         style="fill:#ffffff" />
      <path
         d="m 71.039782,80.667506 h 1.315842 v 3.409227 h 1.41154 v -3.409227 h 1.315842 v 8.37354 h -1.315842 v -3.768093 h -1.41154 v 3.768093 h -1.315842 z"
         id="path1345"
         style="fill:#ffffff" />
      <path
         d="m 76.063906,80.667506 h 3.58866 v 1.19622 h -2.272818 v 2.213007 h 1.806292 v 1.19622 h -1.806292 v 2.571873 h 2.272818 v 1.19622 h -3.58866 z"
         id="path1347"
         style="fill:#ffffff" />
      <path
         d="m 80.406195,80.667506 h 3.58866 v 1.19622 h -2.272818 v 2.213007 h 1.806292 v 1.19622 h -1.806292 v 2.571873 h 2.272818 v 1.19622 h -3.58866 z"
         id="path1349"
         style="fill:#ffffff" />
      <path
         d="m 84.748484,80.667506 h 1.315842 v 7.17732 h 2.165158 v 1.19622 h -3.481 z"
         id="path1351"
         style="fill:#ffffff" />
      <path
         d="m 90.574073,89.160668 q -0.956976,0 -1.447427,-0.538299 -0.49045,-0.550261 -0.49045,-1.567048 v -0.478488 h 1.244069 v 0.574186 q 0,0.813429 0.681845,0.813429 0.334942,0 0.502413,-0.191395 0.179433,-0.203357 0.179433,-0.645959 0,-0.526337 -0.239244,-0.921089 -0.239244,-0.406715 -0.885203,-0.968939 -0.81343,-0.717732 -1.136409,-1.291917 -0.322979,-0.586148 -0.322979,-1.315842 0,-0.992863 0.502412,-1.531162 0.502412,-0.550261 1.459388,-0.550261 0.945014,0 1.423502,0.550261 0.49045,0.538299 0.49045,1.555086 v 0.346904 h -1.244068 v -0.430639 q 0,-0.430639 -0.167471,-0.622035 -0.167471,-0.203357 -0.49045,-0.203357 -0.657921,0 -0.657921,0.801467 0,0.454564 0.239244,0.849317 0.251206,0.394752 0.897165,0.956976 0.825391,0.717732 1.136409,1.303879 0.311017,0.586148 0.311017,1.375654 0,1.028749 -0.514375,1.57901 -0.502412,0.550261 -1.47135,0.550261 z"
         id="path1353"
         style="fill:#ffffff" />
      <path
         d="m 95.227366,80.667506 h 1.878065 l 0.837354,5.993062 h 0.02393 l 0.837354,-5.993062 h 1.878071 v 8.37354 H 99.43806 V 82.70108 h -0.02392 l -0.95698,6.339966 H 97.356637 L 96.399661,82.70108 h -0.02392 v 6.339966 H 95.22737 Z"
         id="path1355"
         style="fill:#ffffff" />
      <path
         d="m 103.56502,89.160668 q -0.96894,0 -1.48331,-0.550261 -0.51438,-0.550261 -0.51438,-1.555086 v -4.40209 q 0,-1.004825 0.51438,-1.555086 0.51437,-0.550261 1.48331,-0.550261 0.96894,0 1.48331,0.550261 0.51438,0.550261 0.51438,1.555086 v 4.40209 q 0,1.004825 -0.51438,1.555086 -0.51437,0.550261 -1.48331,0.550261 z m 0,-1.19622 q 0.68185,0 0.68185,-0.825392 v -4.56956 q 0,-0.825392 -0.68185,-0.825392 -0.68184,0 -0.68184,0.825392 v 4.56956 q 0,0.825392 0.68184,0.825392 z"
         id="path1357"
         style="fill:#ffffff" />
      <path
         d="m 106.07707,80.667506 h 1.3278 l 0.86128,6.495475 h 0.0239 l 0.86128,-6.495475 h 1.20819 l -1.268,8.37354 h -1.74648 z"
         id="path1359"
         style="fill:#ffffff" />
      <path
         d="m 110.99353,80.667506 h 3.58866 v 1.19622 h -2.27282 v 2.213007 h 1.8063 v 1.19622 h -1.8063 v 2.571873 h 2.27282 v 1.19622 h -3.58866 z"
         id="path1361"
         style="fill:#ffffff" />
      <path
         d="m 118.27852,81.863726 h -1.37565 v -1.19622 h 4.06715 v 1.19622 h -1.37566 v 7.17732 h -1.31584 z"
         id="path1363"
         style="fill:#ffffff" />
      <path
         d="m 121.60401,80.667506 h 1.31585 v 3.409227 h 1.41154 v -3.409227 h 1.31584 v 8.37354 h -1.31584 v -3.768093 h -1.41154 v 3.768093 h -1.31585 z"
         id="path1365"
         style="fill:#ffffff" />
      <path
         d="m 126.62814,80.667506 h 3.58866 v 1.19622 h -2.27282 v 2.213007 h 1.80629 v 1.19622 h -1.80629 v 2.571873 h 2.27282 v 1.19622 h -3.58866 z"
         id="path1367"
         style="fill:#ffffff" />
      <path
         d="m 134.59497,89.160668 q -0.95697,0 -1.44742,-0.538299 -0.49045,-0.550261 -0.49045,-1.567048 v -0.478488 h 1.24407 v 0.574186 q 0,0.813429 0.68184,0.813429 0.33494,0 0.50241,-0.191395 0.17944,-0.203357 0.17944,-0.645959 0,-0.526337 -0.23925,-0.921089 -0.23924,-0.406715 -0.8852,-0.968939 -0.81343,-0.717732 -1.13641,-1.291917 -0.32298,-0.586148 -0.32298,-1.315842 0,-0.992863 0.50241,-1.531162 0.50242,-0.550261 1.45939,-0.550261 0.94502,0 1.4235,0.550261 0.49045,0.538299 0.49045,1.555086 v 0.346904 h -1.24406 v -0.430639 q 0,-0.430639 -0.16748,-0.622035 -0.16747,-0.203357 -0.49045,-0.203357 -0.65792,0 -0.65792,0.801467 0,0.454564 0.23925,0.849317 0.2512,0.394752 0.89716,0.956976 0.82539,0.717732 1.13641,1.303879 0.31102,0.586148 0.31102,1.375654 0,1.028749 -0.51438,1.57901 -0.50241,0.550261 -1.47135,0.550261 z"
         id="path1369"
         style="fill:#ffffff" />
      <path
         d="m 139.2363,89.160668 q -0.96893,0 -1.48331,-0.550261 -0.51437,-0.550261 -0.51437,-1.555086 v -4.40209 q 0,-1.004825 0.51437,-1.555086 0.51438,-0.550261 1.48331,-0.550261 0.96894,0 1.48332,0.550261 0.51437,0.550261 0.51437,1.555086 v 4.40209 q 0,1.004825 -0.51437,1.555086 -0.51438,0.550261 -1.48332,0.550261 z m 0,-1.19622 q 0.68185,0 0.68185,-0.825392 v -4.56956 q 0,-0.825392 -0.68185,-0.825392 -0.68184,0 -0.68184,0.825392 v 4.56956 q 0,0.825392 0.68184,0.825392 z"
         id="path1371"
         style="fill:#ffffff" />
      <path
         d="m 144.03314,89.160668 q -0.95698,0 -1.45939,-0.538299 -0.50241,-0.550261 -0.50241,-1.567048 v -6.387815 h 1.31584 v 6.483513 q 0,0.430639 0.16747,0.622034 0.17944,0.191395 0.50242,0.191395 0.32297,0 0.49045,-0.191395 0.17943,-0.191395 0.17943,-0.622034 v -6.483513 h 1.26799 v 6.387815 q 0,1.016787 -0.50241,1.567048 -0.50241,0.538299 -1.45939,0.538299 z"
         id="path1373"
         style="fill:#ffffff" />
      <path
         d="m 146.928,80.667506 h 1.31585 v 7.17732 h 2.16515 v 1.19622 h -3.481 z"
         id="path1375"
         style="fill:#ffffff" />
      <path
         d="m 151.16262,87.773053 h 1.268 v 1.267993 h -1.268 z"
         id="path1377"
         style="fill:#ffffff" />
    </g>
  </g>
</svg>
