<?xml version="1.0" encoding="UTF-8" standalone="no"?>
<!-- Created with Inkscape (http://www.inkscape.org/) -->

<svg
   width="57.407837mm"
   height="44.56633mm"
   viewBox="0 0 57.407837 44.56633"
   version="1.1"
   id="svg5"
   inkscape:version="1.2.2 (732a01da63, 2022-12-09)"
   sodipodi:docname="canvas.svg"
   xmlns:inkscape="http://www.inkscape.org/namespaces/inkscape"
   xmlns:sodipodi="http://sodipodi.sourceforge.net/DTD/sodipodi-0.dtd"
   xmlns:xlink="http://www.w3.org/1999/xlink"
   xmlns="http://www.w3.org/2000/svg"
   xmlns:svg="http://www.w3.org/2000/svg">
  <sodipodi:namedview
     id="namedview7"
     pagecolor="#808080"
     bordercolor="#000000"
     borderopacity="0.25"
     inkscape:showpageshadow="2"
     inkscape:pageopacity="0"
     inkscape:pagecheckerboard="0"
     inkscape:deskcolor="#d1d1d1"
     inkscape:document-units="mm"
     showgrid="true"
     inkscape:zoom="0.74564394"
     inkscape:cx="657.15011"
     inkscape:cy="561.9304"
     inkscape:window-width="1920"
     inkscape:window-height="1017"
     inkscape:window-x="-8"
     inkscape:window-y="-8"
     inkscape:window-maximized="1"
     inkscape:current-layer="layer1"
     showguides="true">
    <inkscape:grid
       type="xygrid"
       id="grid2731" />
    <sodipodi:guide
       position="-55.463916,72.51335"
       orientation="1,0"
       id="guide2733"
       inkscape:locked="false" />
    <sodipodi:guide
       position="-31.867142,95.9327"
       orientation="0,-1"
       id="guide2735"
       inkscape:locked="false" />
  </sodipodi:namedview>
  <defs
     id="defs2">
    <color-profile
       name="Agfa-:-Swop-Standard"
       xlink:href="file:///C:/WINDOWS/system32/spool/drivers/color/RSWOP.icm"
       id="color-profile4085" />
  </defs>
  <g
     inkscape:label="Layer 1"
     inkscape:groupmode="layer"
     id="layer1"
     transform="translate(-103.0123,-191.52766)">
    <g
       id="g3406"
       inkscape:export-filename="g3406.svg"
       inkscape:export-xdpi="96"
       inkscape:export-ydpi="96">
      <g
         aria-label="FOUR WHEELS"
         id="text2835-93"
         style="font-size:11.9622px;font-family:'Bebas Neue';-inkscape-font-specification:'Bebas Neue, Normal';fill:#ffffff;stroke:#f600de;stroke-width:0">
        <path
           d="m 103.3357,191.64727 h 3.481 v 1.19622 h -2.16515 v 2.33263 h 1.69863 v 1.19622 h -1.69863 v 3.64847 h -1.31585 z"
           id="path3338" />
        <path
           d="m 109.35269,200.14043 q -0.96894,0 -1.48331,-0.55026 -0.51438,-0.55026 -0.51438,-1.55508 V 193.633 q 0,-1.00483 0.51438,-1.55509 0.51437,-0.55026 1.48331,-0.55026 0.96894,0 1.48331,0.55026 0.51438,0.55026 0.51438,1.55509 v 4.40209 q 0,1.00482 -0.51438,1.55508 -0.51437,0.55026 -1.48331,0.55026 z m 0,-1.19622 q 0.68184,0 0.68184,-0.82539 v -4.56956 q 0,-0.82539 -0.68184,-0.82539 -0.68185,0 -0.68185,0.82539 v 4.56956 q 0,0.82539 0.68185,0.82539 z"
           id="path3340" />
        <path
           d="m 114.14953,200.14043 q -0.95698,0 -1.45939,-0.53829 -0.50242,-0.55027 -0.50242,-1.56705 v -6.38782 h 1.31585 v 6.48352 q 0,0.43063 0.16747,0.62203 0.17943,0.19139 0.50241,0.19139 0.32298,0 0.49045,-0.19139 0.17943,-0.1914 0.17943,-0.62203 v -6.48352 h 1.268 v 6.38782 q 0,1.01678 -0.50242,1.56705 -0.50241,0.53829 -1.45938,0.53829 z"
           id="path3342" />
        <path
           d="m 117.04438,191.64727 h 1.94984 q 1.01679,0 1.48331,0.47849 0.46653,0.46653 0.46653,1.44743 v 0.51437 q 0,1.30388 -0.86128,1.65079 v 0.0239 q 0.47849,0.14355 0.66989,0.58615 0.20335,0.4426 0.20335,1.18426 v 1.47135 q 0,0.35886 0.0239,0.58614 0.0239,0.21532 0.11962,0.43064 h -1.33977 q -0.0718,-0.20335 -0.0957,-0.38279 -0.0239,-0.17943 -0.0239,-0.64596 v -1.53116 q 0,-0.57418 -0.19139,-0.80147 -0.17944,-0.22728 -0.634,-0.22728 h -0.45456 v 3.58866 h -1.31585 z m 1.79433,3.58866 q 0.39476,0 0.58615,-0.20335 0.20336,-0.20336 0.20336,-0.68185 v -0.64596 q 0,-0.45456 -0.16747,-0.65792 -0.15551,-0.20336 -0.50241,-0.20336 h -0.59811 v 2.39244 z"
           id="path3344" />
        <path
           d="m 123.46808,191.64727 h 1.26799 l 0.58615,6.43567 h 0.0239 l 0.62203,-6.43567 h 1.43547 l 0.62203,6.43567 h 0.0239 l 0.58615,-6.43567 h 1.13641 l -0.84932,8.37354 h -1.63882 l -0.59811,-5.64616 h -0.0239 l -0.59811,5.64616 h -1.74648 z"
           id="path3346" />
        <path
           d="m 130.44203,191.64727 h 1.31585 v 3.40923 h 1.41154 v -3.40923 h 1.31584 v 8.37354 h -1.31584 v -3.76809 h -1.41154 v 3.76809 h -1.31585 z"
           id="path3348" />
        <path
           d="m 135.46616,191.64727 h 3.58866 v 1.19622 H 136.782 v 2.21301 h 1.80629 v 1.19622 H 136.782 v 2.57187 h 2.27282 v 1.19622 h -3.58866 z"
           id="path3350" />
        <path
           d="m 139.80845,191.64727 h 3.58866 v 1.19622 h -2.27282 v 2.21301 h 1.80629 v 1.19622 h -1.80629 v 2.57187 h 2.27282 v 1.19622 h -3.58866 z"
           id="path3352" />
        <path
           d="m 144.15074,191.64727 h 1.31584 v 7.17732 h 2.16516 v 1.19622 h -3.481 z"
           id="path3354" />
        <path
           d="m 149.97633,200.14043 q -0.95698,0 -1.44743,-0.53829 -0.49045,-0.55027 -0.49045,-1.56705 v -0.47849 h 1.24407 v 0.57419 q 0,0.81342 0.68185,0.81342 0.33494,0 0.50241,-0.19139 0.17943,-0.20336 0.17943,-0.64596 0,-0.52634 -0.23924,-0.92109 -0.23925,-0.40671 -0.8852,-0.96894 -0.81343,-0.71773 -1.13641,-1.29191 -0.32298,-0.58615 -0.32298,-1.31585 0,-0.99286 0.50241,-1.53116 0.50241,-0.55026 1.45939,-0.55026 0.94501,0 1.4235,0.55026 0.49045,0.5383 0.49045,1.55509 v 0.3469 h -1.24407 v -0.43064 q 0,-0.43064 -0.16747,-0.62203 -0.16747,-0.20336 -0.49045,-0.20336 -0.65792,0 -0.65792,0.80147 0,0.45456 0.23924,0.84931 0.25121,0.39476 0.89717,0.95698 0.82539,0.71773 1.13641,1.30388 0.31101,0.58615 0.31101,1.37565 0,1.02875 -0.51437,1.57901 -0.50241,0.55026 -1.47135,0.55026 z"
           id="path3356" />
      </g>
      <g
         aria-label="MOVE THE BODY."
         id="text2835-9-0"
         style="font-size:11.9622px;font-family:'Bebas Neue';-inkscape-font-specification:'Bebas Neue, Normal';fill:#ffffff;stroke:#f600de;stroke-width:0">
        <path
           d="m 103.19336,202.30984 h 1.87807 l 0.83735,5.99306 h 0.0239 l 0.83735,-5.99306 h 1.87806 v 8.37354 h -1.24406 v -6.33997 h -0.0239 l -0.95697,6.33997 h -1.10053 l -0.95697,-6.33997 h -0.0239 v 6.33997 h -1.14837 z"
           id="path3313" />
        <path
           d="m 111.53102,210.803 q -0.96894,0 -1.48332,-0.55026 -0.51437,-0.55026 -0.51437,-1.55509 v -4.40208 q 0,-1.00483 0.51437,-1.55509 0.51438,-0.55026 1.48332,-0.55026 0.96893,0 1.48331,0.55026 0.51437,0.55026 0.51437,1.55509 v 4.40208 q 0,1.00483 -0.51437,1.55509 -0.51438,0.55026 -1.48331,0.55026 z m 0,-1.19622 q 0.68184,0 0.68184,-0.82539 v -4.56956 q 0,-0.82539 -0.68184,-0.82539 -0.68185,0 -0.68185,0.82539 v 4.56956 q 0,0.82539 0.68185,0.82539 z"
           id="path3315" />
        <path
           d="m 114.04306,202.30984 h 1.32781 l 0.86128,6.49547 h 0.0239 l 0.86128,-6.49547 h 1.20818 l -1.26799,8.37354 h -1.74648 z"
           id="path3317" />
        <path
           d="m 118.95953,202.30984 h 3.58866 v 1.19622 h -2.27282 v 2.21301 h 1.80629 v 1.19622 h -1.80629 v 2.57187 h 2.27282 v 1.19622 h -3.58866 z"
           id="path3319" />
        <path
           d="m 126.24452,203.50606 h -1.37566 v -1.19622 h 4.06715 v 1.19622 h -1.37565 v 7.17732 h -1.31584 z"
           id="path3321" />
        <path
           d="m 129.57001,202.30984 h 1.31584 v 3.40923 h 1.41154 v -3.40923 h 1.31585 v 8.37354 h -1.31585 v -3.76809 h -1.41154 v 3.76809 h -1.31584 z"
           id="path3323" />
        <path
           d="m 134.59414,202.30984 h 3.58866 v 1.19622 h -2.27282 v 2.21301 h 1.80629 v 1.19622 h -1.80629 v 2.57187 h 2.27282 v 1.19622 h -3.58866 z"
           id="path3325" />
        <path
           d="m 140.85037,202.30984 h 1.98573 q 1.01679,0 1.48331,0.47849 0.46653,0.46652 0.46653,1.44742 v 0.33495 q 0,0.64595 -0.21532,1.05267 -0.20336,0.40671 -0.634,0.58615 v 0.0239 q 0.9809,0.33494 0.9809,1.74648 v 0.71773 q 0,0.96894 -0.51437,1.48332 -0.50241,0.50241 -1.48331,0.50241 h -2.06947 z m 1.83022,3.40923 q 0.39475,0 0.58615,-0.20336 0.20336,-0.20336 0.20336,-0.68185 v -0.46652 q 0,-0.45457 -0.16747,-0.65792 -0.15551,-0.20336 -0.50242,-0.20336 h -0.63399 v 2.21301 z m 0.23925,3.76809 q 0.3469,0 0.51437,-0.17943 0.16747,-0.1914 0.16747,-0.64596 v -0.7297 q 0,-0.57418 -0.20336,-0.7895 -0.19139,-0.22728 -0.64596,-0.22728 h -0.58614 v 2.57187 z"
           id="path3327" />
        <path
           d="m 147.58509,210.803 q -0.96894,0 -1.48332,-0.55026 -0.51437,-0.55026 -0.51437,-1.55509 v -4.40208 q 0,-1.00483 0.51437,-1.55509 0.51438,-0.55026 1.48332,-0.55026 0.96893,0 1.48331,0.55026 0.51437,0.55026 0.51437,1.55509 v 4.40208 q 0,1.00483 -0.51437,1.55509 -0.51438,0.55026 -1.48331,0.55026 z m 0,-1.19622 q 0.68184,0 0.68184,-0.82539 v -4.56956 q 0,-0.82539 -0.68184,-0.82539 -0.68185,0 -0.68185,0.82539 v 4.56956 q 0,0.82539 0.68185,0.82539 z"
           id="path3329" />
        <path
           d="m 150.46797,202.30984 h 2.00965 q 0.9809,0 1.47135,0.52634 0.49045,0.52633 0.49045,1.54312 v 4.23462 q 0,1.01679 -0.49045,1.54312 -0.49045,0.52634 -1.47135,0.52634 h -2.00965 z m 1.98573,7.17732 q 0.32298,0 0.49045,-0.1914 0.17943,-0.19139 0.17943,-0.62203 v -4.35424 q 0,-0.43064 -0.17943,-0.62203 -0.16747,-0.1914 -0.49045,-0.1914 h -0.66988 v 5.9811 z"
           id="path3331" />
        <path
           d="m 156.31749,207.11864 -1.59097,-4.8088 h 1.39958 l 0.89716,3.07429 h 0.0239 l 0.89716,-3.07429 h 1.27996 l -1.59097,4.8088 v 3.56474 h -1.31585 z"
           id="path3333" />
        <path
           d="m 158.70992,209.41539 h 1.26799 v 1.26799 h -1.26799 z"
           id="path3335" />
      </g>
      <g
         aria-label="TWO WHEELS"
         id="text2835-0-5"
         style="font-size:11.9622px;font-family:'Bebas Neue';-inkscape-font-specification:'Bebas Neue, Normal';fill:#ffffff;stroke:#f600de;stroke-width:0">
        <path
           d="m 104.38795,218.13446 h -1.37565 v -1.19622 h 4.06715 v 1.19622 h -1.37566 v 7.17732 h -1.31584 z"
           id="path3294" />
        <path
           d="m 107.45027,216.93824 h 1.268 l 0.58615,6.43567 h 0.0239 l 0.62203,-6.43567 h 1.43547 l 0.62203,6.43567 h 0.0239 l 0.58615,-6.43567 h 1.1364 l -0.84931,8.37354 h -1.63882 l -0.59811,-5.64616 h -0.0239 l -0.59811,5.64616 h -1.74648 z"
           id="path3296" />
        <path
           d="m 116.32622,225.4314 q -0.96894,0 -1.48331,-0.55026 -0.51438,-0.55026 -0.51438,-1.55508 v -4.40209 q 0,-1.00483 0.51438,-1.55509 0.51437,-0.55026 1.48331,-0.55026 0.96894,0 1.48331,0.55026 0.51438,0.55026 0.51438,1.55509 v 4.40209 q 0,1.00482 -0.51438,1.55508 -0.51437,0.55026 -1.48331,0.55026 z m 0,-1.19622 q 0.68184,0 0.68184,-0.82539 v -4.56956 q 0,-0.82539 -0.68184,-0.82539 -0.68185,0 -0.68185,0.82539 v 4.56956 q 0,0.82539 0.68185,0.82539 z"
           id="path3298" />
        <path
           d="m 120.81204,216.93824 h 1.26799 l 0.58615,6.43567 h 0.0239 l 0.62204,-6.43567 h 1.43546 l 0.62203,6.43567 h 0.0239 l 0.58615,-6.43567 h 1.13641 l -0.84932,8.37354 h -1.63882 l -0.59811,-5.64616 h -0.0239 l -0.59811,5.64616 h -1.74648 z"
           id="path3300" />
        <path
           d="m 127.78599,216.93824 h 1.31584 v 3.40923 h 1.41154 v -3.40923 h 1.31584 v 8.37354 h -1.31584 v -3.76809 h -1.41154 v 3.76809 h -1.31584 z"
           id="path3302" />
        <path
           d="m 132.81011,216.93824 h 3.58866 v 1.19622 h -2.27281 v 2.21301 h 1.80629 v 1.19622 h -1.80629 v 2.57187 h 2.27281 v 1.19622 h -3.58866 z"
           id="path3304" />
        <path
           d="m 137.1524,216.93824 h 3.58866 v 1.19622 h -2.27281 v 2.21301 h 1.80629 v 1.19622 h -1.80629 v 2.57187 h 2.27281 v 1.19622 h -3.58866 z"
           id="path3306" />
        <path
           d="m 141.49469,216.93824 h 1.31584 v 7.17732 h 2.16516 v 1.19622 h -3.481 z"
           id="path3308" />
        <path
           d="m 147.32028,225.4314 q -0.95698,0 -1.44743,-0.53829 -0.49045,-0.55027 -0.49045,-1.56705 v -0.47849 h 1.24407 v 0.57419 q 0,0.81342 0.68185,0.81342 0.33494,0 0.50241,-0.19139 0.17943,-0.20336 0.17943,-0.64596 0,-0.52634 -0.23924,-0.92109 -0.23924,-0.40671 -0.8852,-0.96894 -0.81343,-0.71773 -1.13641,-1.29191 -0.32298,-0.58615 -0.32298,-1.31585 0,-0.99286 0.50241,-1.53116 0.50241,-0.55026 1.45939,-0.55026 0.94501,0 1.4235,0.55026 0.49045,0.5383 0.49045,1.55509 v 0.3469 h -1.24407 v -0.43064 q 0,-0.43064 -0.16747,-0.62203 -0.16747,-0.20336 -0.49045,-0.20336 -0.65792,0 -0.65792,0.80147 0,0.45456 0.23924,0.84931 0.25121,0.39476 0.89717,0.95698 0.82539,0.71773 1.13641,1.30388 0.31102,0.58615 0.31102,1.37565 0,1.02875 -0.51438,1.57901 -0.50241,0.55026 -1.47135,0.55026 z"
           id="path3310" />
      </g>
      <g
         aria-label="MOVE THE SOUL."
         id="text2835-9-2-9"
         style="font-size:11.9622px;font-family:'Bebas Neue';-inkscape-font-specification:'Bebas Neue, Normal';fill:#ffffff;stroke:#f600de;stroke-width:0">
        <path
           d="m 103.21688,227.60081 h 1.87807 l 0.83735,5.99306 h 0.0239 l 0.83735,-5.99306 h 1.87807 v 8.37354 h -1.24407 v -6.33997 h -0.0239 l -0.95697,6.33997 h -1.10053 l -0.95697,-6.33997 h -0.0239 v 6.33997 h -1.14837 z"
           id="path3269" />
        <path
           d="m 111.55454,236.09397 q -0.96894,0 -1.48331,-0.55026 -0.51438,-0.55026 -0.51438,-1.55509 v -4.40208 q 0,-1.00483 0.51438,-1.55509 0.51437,-0.55026 1.48331,-0.55026 0.96894,0 1.48331,0.55026 0.51438,0.55026 0.51438,1.55509 v 4.40208 q 0,1.00483 -0.51438,1.55509 -0.51437,0.55026 -1.48331,0.55026 z m 0,-1.19622 q 0.68184,0 0.68184,-0.82539 v -4.56956 q 0,-0.82539 -0.68184,-0.82539 -0.68185,0 -0.68185,0.82539 v 4.56956 q 0,0.82539 0.68185,0.82539 z"
           id="path3271" />
        <path
           d="m 114.06659,227.60081 h 1.3278 l 0.86128,6.49547 h 0.0239 l 0.86128,-6.49547 h 1.20818 l -1.26799,8.37354 h -1.74648 z"
           id="path3273" />
        <path
           d="m 118.98305,227.60081 h 3.58866 v 1.19622 h -2.27282 v 2.21301 h 1.80629 v 1.19622 h -1.80629 v 2.57187 h 2.27282 v 1.19622 h -3.58866 z"
           id="path3275" />
        <path
           d="m 126.26804,228.79703 h -1.37566 v -1.19622 h 4.06715 v 1.19622 h -1.37565 v 7.17732 h -1.31584 z"
           id="path3277" />
        <path
           d="m 129.59353,227.60081 h 1.31584 v 3.40923 h 1.41154 v -3.40923 h 1.31585 v 8.37354 h -1.31585 v -3.76809 h -1.41154 v 3.76809 h -1.31584 z"
           id="path3279" />
        <path
           d="m 134.61766,227.60081 h 3.58866 v 1.19622 h -2.27282 v 2.21301 h 1.80629 v 1.19622 h -1.80629 v 2.57187 h 2.27282 v 1.19622 h -3.58866 z"
           id="path3281" />
        <path
           d="m 142.58449,236.09397 q -0.95698,0 -1.44743,-0.5383 -0.49045,-0.55026 -0.49045,-1.56705 v -0.47848 h 1.24407 v 0.57418 q 0,0.81343 0.68185,0.81343 0.33494,0 0.50241,-0.19139 0.17943,-0.20336 0.17943,-0.64596 0,-0.52634 -0.23924,-0.92109 -0.23924,-0.40672 -0.8852,-0.96894 -0.81343,-0.71773 -1.13641,-1.29192 -0.32298,-0.58615 -0.32298,-1.31584 0,-0.99286 0.50241,-1.53116 0.50241,-0.55026 1.45939,-0.55026 0.94501,0 1.4235,0.55026 0.49045,0.5383 0.49045,1.55509 v 0.3469 h -1.24407 v -0.43064 q 0,-0.43064 -0.16747,-0.62203 -0.16747,-0.20336 -0.49045,-0.20336 -0.65792,0 -0.65792,0.80147 0,0.45456 0.23924,0.84931 0.25121,0.39475 0.89717,0.95698 0.82539,0.71773 1.13641,1.30388 0.31102,0.58615 0.31102,1.37565 0,1.02875 -0.51438,1.57901 -0.50241,0.55026 -1.47135,0.55026 z"
           id="path3283" />
        <path
           d="m 147.22582,236.09397 q -0.96894,0 -1.48331,-0.55026 -0.51438,-0.55026 -0.51438,-1.55509 v -4.40208 q 0,-1.00483 0.51438,-1.55509 0.51437,-0.55026 1.48331,-0.55026 0.96894,0 1.48331,0.55026 0.51438,0.55026 0.51438,1.55509 v 4.40208 q 0,1.00483 -0.51438,1.55509 -0.51437,0.55026 -1.48331,0.55026 z m 0,-1.19622 q 0.68185,0 0.68185,-0.82539 v -4.56956 q 0,-0.82539 -0.68185,-0.82539 -0.68184,0 -0.68184,0.82539 v 4.56956 q 0,0.82539 0.68184,0.82539 z"
           id="path3285" />
        <path
           d="m 152.02266,236.09397 q -0.95697,0 -1.45939,-0.5383 -0.50241,-0.55026 -0.50241,-1.56705 v -6.38781 h 1.31584 v 6.48351 q 0,0.43064 0.16747,0.62204 0.17944,0.19139 0.50242,0.19139 0.32298,0 0.49045,-0.19139 0.17943,-0.1914 0.17943,-0.62204 v -6.48351 h 1.26799 v 6.38781 q 0,1.01679 -0.50241,1.56705 -0.50241,0.5383 -1.45939,0.5383 z"
           id="path3287" />
        <path
           d="m 154.91752,227.60081 h 1.31584 v 7.17732 h 2.16516 v 1.19622 h -3.481 z"
           id="path3289" />
        <path
           d="m 159.15214,234.70636 h 1.26799 v 1.26799 h -1.26799 z"
           id="path3291" />
      </g>
    </g>
  </g>
</svg>
